<svg xmlns="http://www.w3.org/2000/svg" width="148" height="132" viewBox="0 0 148 132">
    <g fill="none" fill-rule="evenodd">
        <path fill="#6E81DD" fill-rule="nonzero" d="M32.335 43.4l2.57-.884c-.156.156-.857.39-1.506.597-.649.208-1.193.364-.934.338 1.609-.416 1.375-.26 1.064-.13-.337.156-.779.26-.104.208-.207.026-.39.13-1.194.182.701-.052.753-.026.675 0-.078.026-.26.052-.13.078.338.026.39 0 .805-.026 0 0 .078.052.13.104.052.051.103.13.103.13-.467.051-1.141-.027-1.22-.104-.103.051-.259.103-.466.181-.052.026-.078.026-.13.052-.052.026-.052-.026-.208.156-.13.13-.26.234-.415.364-.078.052-.13.13-.208.182-.285.311-.596.649-.882.986-5.06 5.584-10.64 12.26-15.155 18.077L0 83.396l23.123 8.934c2.128.831 4.23 1.35 6.202 1.662.493.078.96.13 1.427.182l.7.078c.234.026.442.026.676.052.44.026.882.052 1.297.052h1.22c.415 0 .778-.026 1.142-.026.363-.026.752-.026 1.09-.052.337-.026.674-.052 1.012-.104.156-.026.337-.026.493-.052.156-.026.311-.026.467-.052.234-.026.493-.078.727-.104l-.13.026c.026-.026.052-.078.078-.155.078-.39.052-.442.026-.546-.026-.104-.052-.26-.078-.831.104-.338.207-.312.26-.286.051.026.077.078.207-.285-.13.883-.104.987-.078 1.09.026.104.078.208-.415 1.195 0 0 .13-.286.285-.545.156-.286.286-.572.286-.572s-.078.156-.156.338c-.078.182-.182.338-.182.338.208-.312.416-.52.52-.624.103-.104.155-.156.155-.13-.026.026-.156.26-.156.364.156-.104.753-.597 1.298-1.013.545-.415 1.038-.727.753-.39l.13-.13c.13-.13.285-.233.363-.311.285-.234.648-.52.934-.701-.7.571-.363.363.026.13.39-.234.804-.442.026.13.182-.078.337-.104.726-.312.39-.208 1.064-.572 2.206-1.403-.545.416-.83.676-1.167.935-.338.26-.727.52-1.428.91.052.025-.233.285.493-.053l.571-.493c.234-.052.312.026.26.156-.026.13-.182.337-.312.467-.26.26-.285.26.83-.207l1.272-.702c-.13.182-.26.39-2.88 1.585 0 0-.13.052-.286.077l-.311.104c-.13.13-.182.208-.104.234.078.026.312 0 .727-.052l.181-.13c.442-.104.727-.078.83.156.105.208.053.623-.077 1.143s-.311 1.195-.441 1.87c-.078.338-.104.675-.13.987 0 .078 0 .156-.026.234 0 .077-.026.181-.026.26 0 .155 0 .31.026.44 0 0 .286-.051.597-.103.156-.026.311-.078.441-.104.13-.026.182-.026.182-.026 0-.026-.026.39-.078.78-.052.415-.13.856-.13.856.052-.078-.441-.623-.934-1.09-.493-.494-.986-.884-.83-.884-.078.13-.182.312-.312.52-.363.597-.778 1.272-1.246 2.026-.26.441-.545.883-.83 1.35-.285.494-.57.987-.856 1.507-.286.519-.597 1.064-.909 1.636-.311.571-.597 1.169-.934 1.766-.311.597-.623 1.22-.96 1.87l-.208.39-.104.207c-.077.182-.181.39-.259.572l-.13.311-.104.26c-.155.338-.285.753-.44 1.143-.079.208-.156.441-.208.65l-.104.337-.104.363-.104.364-.052.182-.052.207c-.052.286-.13.546-.181.832l-.156.935-.026.233-.026.26-.052.545-.026.546v.623c0 .416 0 .805.052 1.325.026.233.052.467.078.727.026.234.052.467.104.753.104.546.207 1.065.363 1.61.182.572.363 1.143.597 1.715.234.57.545 1.168.856 1.74.312.571.701 1.116 1.09 1.636.39.545.83 1.013 1.272 1.454l.337.338.182.156.078.078.467.415.104.078.233.208c.182.156.364.286.545.416.182.13.39.26.571.39l.26.18.207.13c1.064.65 2.102 1.092 3.063 1.43.96.31 1.79.493 2.543.648.726.13 1.375.182 1.92.208.52.026 1.012.052 1.376.026.363 0 .7 0 .882-.026.727-.026 1.453-.078 2.206-.104 1.48-.078 2.984-.13 4.463-.233 1.48-.104 2.959-.208 4.412-.286.727-.052 1.453-.104 2.154-.156l2.102-.156c2.803-.207 5.398-.441 7.76-.623 2.361-.182 4.437-.364 6.176-.468 1.713-.103 3.036-.181 3.893-.181 2.776.26.623 1.35.597 1.506 3.295-.623 1.349-1.065 4.152-1.22.778.103-.104.7-.52.856 1.22-.207 2.362 0 2.44-.415-1.557-.182-.986-1.325-1.713-2l1.791-.104c.441-.026.908-.052 1.246-.078.337-.026.545-.026.545-.026l-.104.702c.778-.026 1.868-2.026 5.398-1.922 5.89-.104 12.145-.572 17.854-.364-.052.208-.363.364-.83.493-.234.078-.493.13-.779.182-.285.052-.597.13-.882.208.778 0 1.92-.078 2.62.234-1.349-.753 2.388-.442 1.324-.78 1.038-.389 2.18-.623 3.322-.675 1.142-.052 2.31 0 3.478.078.285.026.57.026.856.052.286.026.571.052.83.078.545.052 1.09.104 1.635.13 1.064.052 2.077.026 3.01-.182.13-.363.831-2.104 1.921-4.519 1.064-2.415 2.517-5.532 4.075-8.623.389-.779.778-1.558 1.167-2.311.208-.39.39-.753.571-1.143.182-.363.39-.727.571-1.09.779-1.455 1.505-2.832 2.128-4 1.272-2.39 2.206-4.13 2.284-4.571 1.375.285 2.75.597 3.14.805-.26-.494-2.958-1.195-4.464-1.221l-.415.909c-1.687-.13-1.842-.312-1.998-.52-.156-.207-.286-.44-1.92-.623-.026-.415.7-.545 1.79-.545.545 0 1.168.052 1.817.13.649.078 1.35.182 2.024.285-1.194-.26-2.362-.675-3.348-.883-1.012-.181-1.842-.233-2.387.13-2.18-.623.389-.935-2.284-1.636-.493 0-1.012.026-1.583.052-.545.052-1.116.104-1.713.13-1.168.052-2.335.026-3.425-.312l.052-.13c-.338-.078-.65-.156-.96-.207l-.468-.078c-.155-.026-.311-.026-.441-.052-.597-.052-1.142-.078-1.687-.078-1.09 0-2.076.104-3.062.208l-1.48.155c-.492.052-.985.104-1.478.13-1.013.052-2.077 0-3.244-.208l.519-.26c-1.713-.519-4.931.183-7.941-.259.856.156 1.609.701-.182.831-1.687-.182-3.114-.13-4.412-.104-.649.026-1.271.026-1.894 0-.597 0-1.22-.052-1.817-.182l-2.284.91c-1.453.051-3.4.207-5.735.389-.597.052-1.194.104-1.816.156-.623.052-1.272.13-1.947.182-1.323.13-2.75.26-4.204.415-5.839.598-12.586 1.35-19.126 1.974l-2.465.234c-.415.026-.805.078-1.22.104-.39.026-.804.052-1.194.104-1.609.13-3.192.26-4.723.363-1.531.104-3.036.182-4.49.286-.181 0-.337.026-.518.026h-.026v.676l.026 1.038.026 2.052v2.519c0 .597 0 1.195-.026 1.792 0 .442-.026.883-.026 1.325 0 .337-.026.675-.052 1.013 0 .26-.026.519-.052.779l-.026.337-.026.312c-.078.805-.208 1.35-.312 1.74-.103.39-.207.675-.31.857-.027.078-.105.13-.053.208v.052c0 .026 0 0-.026 0l-.026-.026-.052-.026-.026-.026h-.026c.312-.078.078-.026.156-.026-.181.182-.156.078.182 0 .337-.104.96-.156 1.739-.078.778.078 1.738.286 2.724.572.26.077.494.155.753.233.234.078.493.182.753.26.233.104.493.182.726.286.234.104.493.207.675.337.104.078.208.13.311.208l.156.104.078.052c.026.026.052 0 .078.026.233.026.467.052.7.052h.052c2.076 1.117-4.567-2.493 4.646 2.52v-.027l.026-.052.052-.078.077-.182c.234-.467.468-.935.701-1.376.104-.234.208-.442.337-.65.104-.207.234-.415.338-.623.467-.805.856-1.558 1.245-2.233.39-.65.753-1.247 1.064-1.74l-.077.363c.103-.182.233-.39.337-.571l.078-.156.207-.312c.13-.207.286-.415.416-.623.57-.831 1.167-1.688 1.764-2.545.312-.442.623-.883.909-1.325.155-.234.337-.441.519-.675l.545-.701c.752-.935 1.505-1.896 2.283-2.857.208-.234.39-.494.597-.727l.286-.364c.103-.13.207-.234.337-.364.441-.493.882-.987 1.35-1.48.908-1.013 1.816-2.026 2.75-3.065.208-.26.493-.52.753-.779.26-.26.519-.52.778-.805.52-.52 1.064-1.065 1.584-1.61 1.09-1.091 2.102-2.156 3.373-3.299 1.22-1.142 2.44-2.285 3.685-3.428.312-.286.649-.571.909-.857l.856-.857c.57-.572 1.142-1.169 1.713-1.74.57-.598 1.142-1.169 1.712-1.766l.442-.442.207-.234.052-.052.026-.051.052-.104c.156-.26.285-.52.441-.754.597-1.012 1.194-2.051 1.79-3.09.364-.546.416-.935.598-1.377.155-.415.285-.857.44-1.272.157-.442.286-.857.442-1.299.026-.104.078-.234.104-.312l.052-.26.104-.519.389-2.104c.026-.103.026-.155.026-.233l.026-.208.026-.442.078-.857c.026-.285.051-.597.077-.857l.026-.727.026-.727V66.904c-.026-.78-.026-1.61-.052-2.234-.026-.338 0-.675-.026-.987-.025-.338-.077-.779-.389-1.532-.285-.78-.856-1.766-1.375-2.442-.52-.675-1.012-1.168-1.454-1.558-.44-.39-.83-.65-1.271-.935-.208-.13-.415-.26-.623-.415l-.311-.208-.338-.182c-.467-.26-.908-.52-1.375-.753-.52-.234-1.012-.468-1.505-.701-.234-.104-.52-.208-.779-.312-.285-.104-.545-.208-.804-.286-.26-.104-.545-.182-.805-.285-.285-.078-.597-.156-.882-.234l-.857-.234c-.155-.026-.285-.078-.415-.104l-.207-.052c-.078-.026-.156-.026-.234-.052-.649-.104-1.246-.208-1.842-.311-.13-.078-.234-.182-.39-.26-.026-.026-.078-.052-.104-.052l-.13-.052c-.077-.026-.181-.078-.259-.104-.363-.13-.726-.26-1.142-.364l-.623-.155c-.207-.052-.415-.104-.674-.13-.52-.052-1.038-.104-1.557-.13l-.805-.052-.415-.026h-.441c-.623.052-1.22.078-1.817.13-.597.026-1.194.078-1.764.104-.597.052-1.168.104-1.713.13 2.232.052.804.805-1.09.987-6.851.83-7.267 1.116-7.656 1.35-.207.13-.415.26-1.48.546-1.063.26-2.958.675-6.59 1.428-3.193.727-8.072 1.792-14.04 3.298-1.505.39-3.089.78-4.697 1.195l-1.246.312-.623.156c-.208.052-.415.103-.623.13-.207.051-.415.103-.623.13l-.155.025-.312.052h-.104c-.103 0-.207.026-.285.026-.078 0-.156.026-.208.026H34.178v.13c0 .234-.026.493-.052.701-.156 1.662-.441 2.546-.52 2.78l7.397 18.206c4.23-5.455 9.057-11.194 13.39-15.947.598-.675 1.195-1.325 1.791-1.948.883-.961 1.74-1.896 2.596-2.805.415-.468.83-.91 1.245-1.35.208-.208.415-.442.597-.65l.312-.312c.103-.103.207-.233.337-.337.882-.91 1.739-1.792 2.57-2.623 3.217-3.377 6.124-6.078 8.018-7.896 1.168-1.61 2.725-3.298 4.36-4.986.83-.857 1.66-1.715 2.543-2.572.208-.207.441-.441.675-.649l.7-.65 1.428-1.324 2.88-2.649c.468-.441.96-.883 1.402-1.299.363-.415.7-.805 1.064-1.22 1.401-1.61 2.647-3.169 3.633-4.545l-.026.467c.156-.182.337-.415.519-.65.104-.207.208-.44.311-.674.234-.494.545-1.065.883-1.74.337-.65.726-1.377 1.168-2.182.051-.104.103-.208.155-.286.026-.078.052-.156.104-.234.052-.155.13-.337.182-.519.13-.338.26-.701.389-1.065.13-.363.285-.753.415-1.117.078-.181.156-.39.234-.571.026-.104.078-.208.104-.286.026-.104.077-.207.103-.285.182-.65.39-1.325.597-2.026.104-.338.208-.701.312-1.065.026-.104.052-.156.078-.234l.051-.234c.026-.155.078-.285.104-.441.156-.597.312-1.195.441-1.792.13-.52.26-1.013.364-1.532.052-.26.104-.494.181-.754.052-.233.104-.467.13-.753.026-.286.026-.571 0-.935-.026-.363-.104-.779-.26-1.272-.155-.494-.389-1.04-.648-1.533-.26-.52-.597-.96-.882-1.35-.597-.754-1.142-1.221-1.61-1.61-.233-.182-.44-.364-.674-.494-.234-.13-.467-.286-.675-.416-.856-.519-1.583-.909-2.102-1.142l.337.415c-.26-.078-.467-.182-.674-.26-.234-.077-.442-.13-.65-.207-.388-.13-.7-.26-.96-.39-.518-.26-.778-.493-.985-.78-.104-.129-.182-.285-.286-.44-.104-.156-.26-.286-.415-.442C86.52.7 86.08.363 85.328 0c-.26.338-.727.545-1.35.701-.311.078-.649.13-.986.156-.182.026-.363.026-.545.052l-.623.078c-1.712.182-3.53.208-4.463.156l.389-.286h-.675c-.104 0-.181.026-.285.026-.39.052-.83.104-1.272.156-.908.104-1.972.26-3.088.39-.467.077-.96.181-1.48.285-.492.104-1.011.208-1.53.312-1.012.208-2.076.415-3.115.623-2.05.364-4.178.883-5.994 1.22l.804-.856c-2.647.727-6.332 1.61-9.757 2.311-3.53.883-6.774 1.533-8.72 2.182-2.128.545-4.542 1.013-7.24 1.792-1.35.364-2.751.727-4.205 1.117-1.453.415-2.958.909-4.49 1.376-1.53.494-3.087.987-4.644 1.533-.39.13-.779.285-1.168.415l-1.116.416c-.467.181-.96.363-1.427.545-1.895.753-3.737 1.584-5.45 2.52l-5.372.051-.597.468s.104 1.558.441 3.922c.338 2.363.908 5.506 1.843 8.674 1.868 6.363 5.138 12.804 10.64 13.272l.13.701 1.738-.805c2.258-.545 2.959-1.688 3.062-.987 0 0-.726.26-1.479.545-.752.286-1.479.546-1.479.546 2.232-.675.856.26.182.96.908-.31 1.816-.57 2.62-.674.312-.416-.414-.156-.804-.156 1.064-.702 2.414-1.922 3.945-2.182 1.116-.39 1.246-.13 1.427.078.078.104.182.234.441.26.13.026.286 0 .467-.026.104-.026.208-.052.338-.078h.052c.7-.052 1.22.052 1.53.182.338.13.468.311.65.363.103.026.233.026.493-.052-.545.442-.545.442-.805.624.364-.234.571-.338.753-.416.207-.078.415-.182.934-.416-.753.494-1.894 1.195-2.673 1.663.39-.234.7-.416.96-.494.234-.078.312-.104.338-.078.026 0-.208.182-.338.234z" opacity=".12"/>
        <g>
            <path stroke="#1C3749" stroke-dasharray="30 4" stroke-linecap="round" stroke-linejoin="round" stroke-width="2.5" d="M35.838 74.795c-1.304-2.058-1.234-10.03-.317-14.774 3.415-17.699-6.93-19.917-8.913-19.986-1.111-1.189-4.013-2.446-7.958-1.952-11.099 1.386-14 14.12-11.484 23.06 1.89 6.723 1.002 11.501 1.002 11.501" transform="translate(25 27)"/>
            <path stroke="#1C3749" stroke-linecap="round" stroke-linejoin="round" stroke-width="2.5" d="M26.529 69.041c-.159-2.301-.184-2.301-.184-2.301M14.838 66.771s.42-.476.071 2.27M54.598 74.795s3.476 1.122 4.597 3.452M54.437 74.795c-.437-.669-1.077-1.653-.728-3.453M37.356 84s-.018-2.737.537-4.8c.998-3.705 5.21-5.556 5.21-5.556M27.011 67.89s8.261 3.25 9.432 7.811c.37 1.444.8 2.675.913 3.696M15.517 69.041S7.175 72.3 5.992 76.875C4.811 81.45 5.254 84 5.254 84M90.23 50.488c.013-4.711-1.308-8.617-4.642-9.107-6.702-7.38-18.347-2.156-18.347 9.724 0 10.756 4.23 15.6 4.23 15.6.533 1.816-.788 3.09-1.044 3.487M70.69 70.192s-4.743 2.078-8.502 5.252c-1.812 1-1.843 8.556-1.843 8.556M43.264 74.795c.437-.669 1.077-1.653.728-3.453M43.103 71.342c-.835-1.161-1.748-2.945-2.298-5.753M55.747 65.589c-.546 2.839-1.47 4.614-2.299 5.753M41.684 65.589s-.655-2.102-.804-5.349c-.146-3.248-.415-5.925 2.868-7.357 4.983-4.862 13.202-1.542 13.148 6.954 0 3.604-.757 5.752-.757 5.752" transform="translate(25 27)"/>
            <path fill="#C2CAF1" d="M89.08 25.315L97.126 26.466 91.924 16.384 75.015 5.041 47.701 0z" transform="translate(25 27)"/>
            <path fill="#C2CAF1" stroke="#1C3749" stroke-dasharray="50 5" stroke-linecap="round" stroke-linejoin="round" stroke-width="2.5" d="M50 1.15C11.653 1.15.574 29.919.574 29.919c2.796-3.684 11.4-6.227 18.313-6.227 6.827 0 11.402 2.49 14.236 6.101 2.837-3.612 10.047-6.101 16.877-6.101 6.828 0 14.038 2.49 16.874 6.101 2.835-3.612 7.41-6.101 14.238-6.101 6.912 0 15.518 2.543 18.312 6.227" transform="translate(25 27)"/>
            <path stroke="#1C3749" stroke-linecap="round" stroke-linejoin="round" stroke-width="2.5" d="M50 1.15c38.348 0 49.425 28.768 49.425 28.768M50.575 24.164L50.575 37.973" transform="translate(25 27)"/>
        </g>
        <path fill="#1C3749" d="M37.034 34.231c.767.31 1.643-.062 1.952-.828.31-.767-.061-1.643-.829-1.953-.766-.31-1.643.062-1.952.829-.31.766.062 1.643.829 1.952M20.756 52.45c.05.027.102.052.154.073.647.262 1.407-.007 1.76-.65 2.956-5.388 6.766-10.265 11.326-14.497.578-.536.626-1.44.108-2.02-.518-.576-1.407-.612-1.984-.077-4.789 4.445-8.792 9.57-11.9 15.234-.38.694-.14 1.56.536 1.937"/>
        <g>
            <path fill="#0A51A7" d="M18.9 4.2c-1.085.773-3.017 1.94-5.678 2.506-2.69.573-4.927.275-6.219 0-3.935 8.57-3.62 17.909.271 24.032.671 1.056 4.722 7.346 11.626 9.162 6.904-1.816 10.955-8.106 11.626-9.162 3.89-6.123 4.206-15.463.27-24.032-1.291.275-3.528.573-6.218 0-2.66-.566-4.593-1.733-5.678-2.506z" transform="translate(101 79)"/>
            <path fill="#1C3749" d="M32.445 32.15c-1.312 2.007-4.985 6.917-10.868 9.218l-2.22.705c-.298.093-.616.093-.914 0l-2.215-.705c-5.888-2.3-9.56-7.21-10.873-9.218C.928 25.36.76 15.26 4.927 6.42l.774-1.636 1.745.362c.5.103 1.005.177 1.519.216.64.063 1.283.073 1.922.03.635-.035 1.26-.118 1.875-.246 1.72-.357 3.398-1.077 4.85-2.085l1.288-.896 1.288.896c1.452 1.008 3.13 1.728 4.85 2.085 1.74.363 3.576.363 5.316 0l1.745-.362.774 1.635c4.167 8.842 3.999 18.941-.428 25.731zm1.062-28.903c-.187-.401-.625-.622-1.057-.534l-2.48.514c-1.486.309-3.057.309-4.548 0-1.475-.308-2.907-.925-4.152-1.786L19.443.173c-.327-.23-.76-.23-1.086 0L16.53 1.44c-1.245.861-2.677 1.478-4.152 1.786-.486.098-.986.167-1.49.201-.64.049-1.284.04-1.923-.03-.38-.038-.76-.092-1.134-.17l-2.48-.515c-.433-.088-.87.133-1.058.534L3.197 5.572c-4.456 9.449-4.24 20.307.558 27.66 1.413 2.169 5.393 7.48 11.814 9.977.02.01.039.015.058.02l2.25.714c.33.103.677.157 1.023.157.346 0 .692-.054 1.024-.157l2.254-.714c.02-.005.039-.01.058-.02 6.416-2.497 10.396-7.808 11.81-9.977 4.796-7.353 5.013-18.211.557-27.66l-1.096-2.325z" transform="translate(101 79)"/>
            <text fill="#FFF" font-family="WorkSans-Regular_Bold, Work Sans" font-size="18" font-weight="bold" transform="translate(101 79)">
                <tspan x="12" y="27">H</tspan>
            </text>
        </g>
    </g>
</svg>
