<svg xmlns="http://www.w3.org/2000/svg" width="134" height="119" viewBox="0 0 134 119">
    <g fill="none">
        <path fill="#5DA030" d="M29.102 39.06l2.313-.796c-.14.14-.772.351-1.356.538-.584.187-1.074.327-.84.304 1.448-.375 1.237-.234.957-.117-.303.14-.701.234-.093.187-.187.023-.351.117-1.075.164.63-.047.678-.024.607 0-.07.023-.234.047-.117.07.305.024.351 0 .725-.023 0 0 .07.047.117.093s.093.117.093.117c-.42.046-1.027-.024-1.098-.093-.093.046-.233.092-.42.163-.047.023-.07.023-.117.046-.047.024-.047-.023-.187.14-.117.118-.234.211-.373.328-.07.047-.117.117-.188.164-.256.28-.536.584-.794.888-4.553 5.025-9.576 11.034-13.639 16.269L0 75.056l20.81 8.041c1.916.748 3.808 1.215 5.582 1.496.444.07.864.117 1.285.164l.63.07c.21.023.398.023.608.047.396.023.794.046 1.168.046h1.098c.373 0 .7-.023 1.027-.023.327-.023.677-.023.981-.047.304-.023.607-.047.911-.093.14-.024.303-.024.444-.047.14-.024.28-.024.42-.047.21-.023.444-.07.654-.094l-.117.024c.024-.024.047-.07.07-.14.07-.35.047-.398.024-.491-.023-.094-.047-.234-.07-.748.093-.304.186-.28.234-.257.046.023.07.07.186-.257-.117.795-.093.888-.07.981.023.094.07.187-.374 1.076 0 0 .117-.258.257-.49.14-.258.257-.516.257-.516s-.07.14-.14.304c-.07.164-.164.305-.164.305.187-.281.375-.468.468-.562.093-.094.14-.14.14-.117-.024.023-.14.234-.14.328.14-.094.677-.538 1.167-.912.49-.373.935-.654.678-.351l.117-.117c.117-.117.257-.21.327-.28.256-.21.583-.468.84-.63-.63.513-.326.326.024.116.35-.21.723-.398.023.117.164-.07.303-.093.654-.28.35-.188.957-.515 1.985-1.263-.49.374-.747.608-1.05.841-.305.234-.655.468-1.286.82.047.022-.21.256.444-.048l.514-.444c.21-.047.28.023.234.14-.023.117-.164.303-.28.42-.235.234-.257.234.746-.186l1.145-.632c-.117.164-.234.351-2.592 1.427 0 0-.117.047-.257.07l-.28.093c-.117.117-.164.187-.094.21.07.024.281 0 .654-.046l.163-.117c.398-.094.655-.07.747.14.095.187.048.56-.069 1.029-.117.468-.28 1.075-.397 1.683-.07.304-.093.607-.117.888 0 .07 0 .14-.023.21 0 .07-.024.163-.024.235 0 .14 0 .279.024.396 0 0 .257-.046.537-.093.14-.023.28-.07.397-.094.117-.023.164-.023.164-.023 0-.023-.024.35-.07.702-.047.373-.117.77-.117.77.046-.07-.397-.56-.841-.98-.444-.445-.887-.796-.747-.796-.07.117-.164.28-.28.468-.328.537-.701 1.144-1.122 1.823-.234.397-.49.795-.747 1.215-.257.445-.513.888-.77 1.356-.258.468-.538.958-.819 1.473-.28.514-.537 1.052-.84 1.59-.28.537-.561 1.097-.864 1.682l-.188.351-.093.186c-.07.164-.163.351-.233.515l-.117.28-.094.234c-.14.304-.256.678-.396 1.029-.07.187-.14.397-.187.585l-.094.303-.093.327-.094.328-.047.163-.046.187c-.047.257-.117.491-.163.748l-.14.842-.024.21-.023.234-.047.49-.024.492v.56c0 .375 0 .725.047 1.193.023.21.047.42.07.654.024.21.047.42.094.678.093.491.186.958.327 1.449.163.514.326 1.028.537 1.543.21.513.49 1.051.77 1.566.281.514.631 1.005.981 1.473.351.49.747.911 1.145 1.308l.303.304.164.14.07.071.42.374.094.07.21.187c.164.14.328.257.49.374.164.117.352.234.514.351l.234.162.187.117c.957.585 1.892.983 2.756 1.287.864.28 1.611.444 2.29.584.653.117 1.237.163 1.727.187.468.023.91.047 1.238.023.327 0 .63 0 .794-.023.655-.024 1.308-.07 1.986-.094 1.332-.07 2.685-.117 4.016-.21 1.332-.093 2.663-.187 3.971-.257l1.939-.14 1.892-.14c2.522-.187 4.858-.398 6.984-.561 2.124-.164 3.993-.328 5.558-.422 1.542-.092 2.732-.163 3.504-.163 2.498.234.56 1.215.537 1.356 2.966-.56 1.214-.959 3.737-1.098.7.093-.094.63-.468.77 1.098-.186 2.126 0 2.196-.373-1.401-.164-.888-1.193-1.542-1.8l1.612-.094c.397-.023.817-.047 1.121-.07.304-.023.49-.023.49-.023l-.093.631c.7-.023 1.681-1.823 4.858-1.73 5.302-.093 10.931-.514 16.07-.327-.048.187-.328.328-.748.444-.21.07-.444.117-.701.163-.257.047-.537.117-.794.188.7 0 1.728-.07 2.358.21-1.214-.677 2.15-.398 1.192-.702.934-.35 1.962-.56 2.99-.607 1.027-.047 2.079 0 3.13.07.256.023.513.023.77.047.258.023.514.047.747.07.49.047.981.094 1.472.117.957.047 1.869.023 2.709-.164.117-.327.748-1.894 1.729-4.067.957-2.173 2.265-4.979 3.667-7.76.35-.702.7-1.403 1.05-2.08.188-.352.351-.678.514-1.03.164-.326.351-.654.514-.98.701-1.31 1.355-2.55 1.915-3.6 1.145-2.151 1.986-3.717 2.056-4.114 1.238.256 2.475.537 2.826.724-.234-.444-2.662-1.075-4.018-1.099l-.373.819c-1.518-.118-1.658-.281-1.798-.469-.14-.186-.258-.395-1.728-.56-.024-.374.63-.49 1.61-.49.491 0 1.052.046 1.636.116.584.07 1.215.164 1.822.257-1.075-.234-2.126-.608-3.014-.795-.91-.163-1.657-.21-2.148.117-1.962-.56.35-.841-2.055-1.472-.444 0-.911.023-1.425.046-.49.047-1.005.094-1.542.117-1.051.047-2.101.024-3.082-.28l.046-.117c-.304-.07-.585-.14-.864-.187l-.42-.07c-.14-.023-.28-.023-.398-.047-.537-.046-1.028-.07-1.518-.07-.981 0-1.868.094-2.756.187l-1.332.14c-.443.047-.886.094-1.33.117-.912.047-1.87 0-2.92-.187l.468-.234c-1.542-.467-4.438.164-7.147-.233.77.14 1.448.63-.164.748-1.519-.164-2.803-.118-3.971-.094-.584.023-1.144.023-1.705 0-.537 0-1.098-.047-1.635-.164l-2.055.82c-1.308.045-3.06.185-5.162.35l-1.634.14c-.561.046-1.145.117-1.753.163-1.19.117-2.475.234-3.783.374-5.255.538-11.328 1.215-17.214 1.776l-2.218.211c-.374.023-.725.07-1.098.094-.351.023-.724.047-1.075.093-1.448.117-2.873.234-4.25.327-1.378.094-2.733.164-4.041.257-.163 0-.304.024-.467.024h-.023v.608l.023.934.024 1.847v2.267c0 .538 0 1.076-.024 1.613 0 .398-.023.795-.023 1.193 0 .303-.023.607-.047.911 0 .234-.023.467-.047.701l-.023.304-.023.28c-.07.725-.188 1.215-.281 1.566-.093.351-.187.608-.28.772-.024.07-.094.117-.047.187v.047c0 .023 0 0-.023 0l-.024-.024-.047-.023-.023-.023h-.023c.28-.07.07-.024.14-.024-.163.164-.14.07.164 0 .303-.093.864-.14 1.565-.07.7.07 1.564.257 2.452.515.234.07.444.14.677.21.21.07.444.163.678.234.21.093.444.163.653.257.21.094.444.186.608.303.093.07.187.117.28.187l.14.094.07.047c.024.023.047 0 .07.023.21.024.42.047.63.047h.047c1.869 1.005-4.11-2.244 4.182 2.268v-.024l.023-.047.047-.07.07-.164c.21-.42.42-.842.63-1.239.094-.21.187-.397.303-.584.094-.187.211-.374.305-.561.42-.725.77-1.402 1.12-2.01.351-.585.678-1.122.958-1.566l-.07.327c.093-.164.21-.351.304-.514l.07-.14.186-.281c.117-.187.258-.374.375-.561.513-.748 1.05-1.52 1.587-2.29.281-.398.56-.795.818-1.193.14-.21.304-.397.467-.608l.49-.63c.678-.842 1.355-1.707 2.056-2.572.187-.21.35-.444.537-.654l.257-.328c.093-.117.187-.21.304-.327.397-.444.793-.889 1.215-1.332.817-.912 1.634-1.824 2.475-2.759.187-.234.443-.468.677-.7.234-.235.467-.469.7-.725.469-.468.958-.959 1.426-1.45.981-.981 1.892-1.94 3.036-2.968 1.098-1.028 2.196-2.057 3.316-3.086.281-.257.584-.513.818-.77l.77-.772c.514-.515 1.029-1.052 1.543-1.566.513-.538 1.027-1.052 1.54-1.59l.398-.397.186-.211.047-.047.024-.046.046-.093c.14-.234.257-.468.397-.679.538-.91 1.075-1.846 1.611-2.78.328-.492.375-.842.538-1.24.14-.374.257-.772.397-1.145.14-.398.257-.771.397-1.17.024-.093.07-.21.094-.28l.047-.234.093-.467.35-1.894c.024-.092.024-.14.024-.21l.023-.186.024-.398.07-.772c.023-.256.046-.537.07-.77l.023-.655.023-.655v-.63c-.023-.702-.023-1.45-.047-2.011-.023-.304 0-.608-.023-.888-.023-.304-.07-.701-.35-1.38-.257-.701-.77-1.589-1.238-2.197-.468-.607-.91-1.051-1.308-1.402-.397-.351-.748-.585-1.144-.842-.188-.117-.374-.234-.561-.373l-.28-.187-.304-.164c-.42-.234-.817-.468-1.238-.678-.468-.21-.91-.421-1.354-.63-.21-.094-.468-.188-.701-.282-.257-.093-.49-.187-.724-.257-.234-.093-.49-.164-.724-.256-.257-.07-.538-.14-.794-.211l-.771-.21c-.14-.024-.257-.07-.374-.094l-.186-.047c-.07-.023-.14-.023-.21-.047-.585-.093-1.122-.187-1.659-.28-.117-.07-.21-.163-.35-.234-.024-.023-.07-.046-.094-.046l-.117-.047c-.07-.024-.163-.07-.233-.094-.327-.117-.654-.234-1.028-.328l-.56-.139c-.187-.047-.374-.094-.608-.117-.468-.047-.934-.094-1.4-.117l-.725-.047-.374-.023h-.397c-.56.047-1.098.07-1.635.117-.537.023-1.075.07-1.588.093-.537.047-1.05.094-1.541.117 2.008.047.723.725-.981.889-6.166.747-6.54 1.004-6.89 1.215-.187.117-.374.234-1.333.491-.956.234-2.662.608-5.93 1.285-2.874.655-7.265 1.613-12.637 2.968-1.354.351-2.78.703-4.227 1.076l-1.121.28-.561.141c-.187.047-.374.093-.56.117-.187.046-.374.093-.561.117l-.14.023-.28.047h-.094c-.093 0-.187.023-.257.023s-.14.023-.187.023h-.21v.117c0 .21-.023.444-.047.631-.14 1.496-.396 2.292-.468 2.502l6.658 16.386c3.807-4.91 8.151-10.075 12.05-14.353.539-.607 1.076-1.192 1.613-1.753.794-.865 1.566-1.706 2.336-2.524.373-.422.747-.82 1.12-1.215.188-.188.374-.398.538-.585l.28-.281c.093-.093.187-.21.304-.303.794-.82 1.565-1.613 2.313-2.361 2.895-3.04 5.511-5.47 7.216-7.107 1.051-1.449 2.453-2.968 3.924-4.487.747-.771 1.494-1.544 2.289-2.315.187-.186.397-.397.607-.584l.63-.585 1.285-1.191 2.593-2.385c.42-.397.864-.794 1.261-1.169.327-.373.63-.724.958-1.098 1.26-1.449 2.382-2.852 3.27-4.09l-.024.42c.14-.164.303-.373.467-.585.094-.186.188-.396.28-.607.21-.444.49-.958.795-1.566.303-.584.653-1.239 1.051-1.963.046-.094.093-.188.14-.258.023-.07.046-.14.093-.21.047-.14.117-.304.164-.467.117-.305.234-.631.35-.959.117-.327.257-.678.374-1.005.07-.163.14-.351.21-.514.024-.094.07-.187.094-.257.023-.094.07-.187.093-.257.163-.585.35-1.192.537-1.823.093-.305.187-.631.28-.959.024-.094.047-.14.07-.21l.047-.211c.023-.14.07-.257.093-.397.14-.537.281-1.075.397-1.613.117-.468.234-.912.328-1.379.047-.234.093-.444.163-.678.046-.21.093-.42.117-.678.023-.257.023-.514 0-.841-.024-.327-.094-.701-.234-1.145-.14-.445-.35-.936-.584-1.38-.233-.468-.537-.864-.793-1.215-.538-.678-1.028-1.099-1.45-1.449-.209-.164-.395-.328-.606-.445-.21-.117-.42-.257-.607-.374-.77-.467-1.425-.818-1.892-1.028l.303.374c-.234-.07-.42-.164-.606-.234-.211-.07-.398-.117-.585-.186-.35-.117-.63-.234-.865-.351-.466-.234-.7-.444-.886-.702-.094-.117-.164-.257-.257-.396-.094-.14-.234-.258-.374-.398C77.868.63 77.472.327 76.795 0c-.234.304-.654.49-1.215.63-.28.071-.584.118-.887.141-.164.024-.327.024-.49.047l-.561.07c-1.541.164-3.177.187-4.017.14l.35-.257h-.607c-.094 0-.163.024-.257.024-.351.046-.747.093-1.145.14-.817.094-1.775.234-2.779.351-.42.07-.864.163-1.332.257-.443.093-.91.187-1.377.28-.91.188-1.868.374-2.803.561-1.845.328-3.76.795-5.395 1.098l.724-.77c-2.383.654-5.7 1.449-8.782 2.08-3.177.794-6.096 1.38-7.848 1.963-1.915.49-4.088.912-6.516 1.613-1.215.328-2.476.655-3.784 1.005-1.308.374-2.663.819-4.041 1.239-1.377.444-2.779.888-4.18 1.38-.35.117-.701.256-1.051.373l-1.005.374c-.42.163-.864.327-1.284.491-1.705.678-3.363 1.426-4.905 2.268l-4.835.046-.537.421s.094 1.402.397 3.53c.304 2.127.817 4.955 1.659 7.806 1.68 5.727 4.624 11.524 9.576 11.945l.117.631 1.564-.724c2.032-.49 2.663-1.52 2.756-.889 0 0-.654.234-1.331.49-.677.258-1.332.492-1.332.492 2.01-.607.77.234.164.864.817-.279 1.635-.513 2.358-.606.281-.375-.372-.14-.723-.14.957-.633 2.172-1.73 3.55-1.964 1.005-.352 1.122-.117 1.285.07.07.093.163.21.396.234.117.023.258 0 .42-.024.094-.023.188-.047.305-.07h.047c.63-.047 1.098.047 1.377.164.304.117.42.28.585.327.092.023.21.023.443-.047-.49.398-.49.398-.724.561.328-.21.514-.304.678-.374.186-.07.373-.164.84-.374-.678.444-1.704 1.075-2.405 1.496.35-.21.63-.374.864-.444.21-.07.28-.094.304-.07.023 0-.188.163-.304.21v.001z" opacity=".089"/>
        <path fill="#CDF7B1" d="M73.8 60.3L102.6 60.3 102.6 58.5 73.8 58.5z"/>
        <path fill="#BBE99D" d="M25.2 46.8L72.9 46.8 72.9 45 25.2 45z"/>
        <path fill="#EABC63" d="M37.35 107.563c-.023-.006.044-.015 0-.026-.043.011.024.02 0 .026"/>
        <path fill="#9DE46E" d="M36.9 62.1c-1.395.994-3.879 2.495-7.3 3.222-3.459.736-6.335.354-7.995 0-5.06 11.018-4.654 23.026.348 30.899.862 1.357 6.07 9.444 14.947 11.779 8.877-2.335 14.085-10.422 14.947-11.78 5.002-7.872 5.41-19.88.349-30.898-1.661.354-4.536.736-7.996 0-3.42-.727-5.904-2.228-7.3-3.222z"/>
        <path fill="#1C3749" d="M108.527 58.5h-.014l-4.326-.05H72.9v-2.47h32.447l.072-.097-7.738-7.49H72.9V45.9h25.308c.338 0 .662.131.9.364l10.32 10.02c.365.358.473.987.272 1.454-.198.462-.66.762-1.173.762"/>
        <path fill="#1C3749" d="M104.034 99.9H72.366c-.699 0-1.266-.558-1.266-1.244V57.6h2.534v39.812h29.132V57.6h2.534v41.056c0 .687-.567 1.244-1.266 1.244m6.335 7.2H57.03c-.68 0-1.231-.403-1.231-.9s.552-.9 1.231-.9h53.338c.68 0 1.231.403 1.231.9s-.552.9-1.231.9"/>
        <path fill="#1C3749" d="M106.745 99.9h-45.19c-.693 0-1.255-.403-1.255-.9s.562-.9 1.256-.9h45.189c.692 0 1.255.403 1.255.9s-.563.9-1.255.9M73.8 41.752V98.1h-2.475V43.005h-44.55V63.62c-.823.057-1.652.045-2.475-.037V41.751c0-.688.557-1.252 1.238-1.252h47.025c.68 0 1.237.563 1.237 1.252"/>
        <path fill="#1C3749" d="M19.244 42.3c-.351 0-.699-.151-.945-.446-.447-.535-.386-1.34.135-1.8l29.831-26.247c.465-.41 1.152-.41 1.618 0l29.782 26.205c.522.458.583 1.264.135 1.8-.445.534-1.23.597-1.752.138L49.074 16.456 20.052 41.992c-.234.207-.522.308-.808.308M80 97.38h6.5V83.52H80v13.86zm7.8 2.52h-9.1c-.719 0-1.3-.564-1.3-1.26V82.26c0-.697.581-1.26 1.3-1.26h9.1c.718 0 1.3.563 1.3 1.26v16.38c0 .696-.582 1.26-1.3 1.26zm-7.186-26h3.472V67.4h-3.473v6.5-.001zm4.629 2.6h-5.786c-.639 0-1.157-.582-1.157-1.3v-9.1c0-.719.517-1.3 1.157-1.3h5.786c.639 0 1.157.581 1.157 1.3v9.1c0 .718-.518 1.3-1.157 1.3zM53.7 57.7h9.6V51.2h-9.6v6.5-.001zm10.8 2.6h-12c-.663 0-1.2-.582-1.2-1.3v-9.1c0-.719.537-1.3 1.2-1.3h12c.663 0 1.2.581 1.2 1.3V59c0 .718-.537 1.3-1.2 1.3zm.84 16.2h-1.26c-.696 0-1.26-.582-1.26-1.3 0-.719.564-1.3 1.26-1.3V67.4h-2.52c-.697 0-1.26-.582-1.26-1.3 0-.719.563-1.301 1.26-1.301h3.78c.696 0 1.26.581 1.26 1.3v9.1c0 .718-.564 1.3-1.26 1.3m-.09 16.2h-2.7c-.746 0-1.35-.582-1.35-1.3 0-.719.604-1.3 1.35-1.3h1.35V83.6c-.746 0-1.35-.582-1.35-1.3 0-.719.604-1.301 1.35-1.301h1.35c.745 0 1.35.581 1.35 1.3v9.1c0 .718-.605 1.3-1.35 1.3M43.8 60.3c-.663 0-1.2-.582-1.2-1.3v-7.8H33v5.2c0 .718-.538 1.3-1.2 1.3-.663 0-1.2-.582-1.2-1.3v-6.5c0-.719.537-1.3 1.2-1.3h12c.663 0 1.2.581 1.2 1.3V59c0 .718-.537 1.3-1.2 1.3m48.514 13.6h3.472V67.4h-3.472v6.5-.001zm4.629 2.6h-5.786c-.639 0-1.157-.582-1.157-1.3v-9.1c0-.719.517-1.3 1.157-1.3h5.786c.639 0 1.157.581 1.157 1.3v9.1c0 .718-.518 1.3-1.157 1.3z"/>
        <path fill="#1C3749" d="M54.315 98.036c-1.688 2.58-6.408 8.894-13.972 11.852l-2.856.906c-.383.12-.791.12-1.174 0l-2.85-.906c-7.57-2.958-12.29-9.272-13.978-11.853-5.692-8.73-5.908-21.714-.549-33.082l.994-2.102 2.243.466c.643.132 1.292.227 1.953.277.822.081 1.65.094 2.473.038.815-.045 1.619-.151 2.409-.315 2.213-.46 4.37-1.385 6.236-2.682l1.656-1.152 1.656 1.152c1.867 1.297 4.023 2.223 6.236 2.682 2.237.466 4.597.466 6.835 0l2.242-.466.996 2.102c5.358 11.367 5.142 24.353-.55 33.083zm2.775-34.172l-1.41-2.99c-.24-.516-.803-.799-1.359-.686l-3.188.662c-1.91.396-3.932.396-5.847 0-1.897-.397-3.738-1.19-5.34-2.298l-2.349-1.63c-.419-.297-.975-.297-1.395 0l-2.349 1.63c-1.6 1.108-3.442 1.901-5.34 2.298-.623.126-1.266.213-1.914.257-.823.063-1.651.05-2.473-.038-.488-.05-.976-.12-1.458-.22l-3.19-.66c-.556-.114-1.117.17-1.358.685l-1.41 2.99c-5.728 12.148-5.45 26.109.718 35.563 1.816 2.788 6.933 9.617 15.19 12.827.024.013.048.02.074.025l2.891.92c.427.132.872.201 1.317.201.445 0 .89-.07 1.317-.202l2.898-.918c.024-.007.05-.013.073-.026 8.25-3.21 13.368-10.04 15.184-12.827 6.168-9.454 6.446-23.415.718-35.563z"/>
        <path fill="#1C3749" d="M34.826 95.4c-.329 0-.648-.131-.883-.369l-5.677-5.707c-.488-.49-.488-1.287 0-1.777s1.28-.49 1.768 0l4.65 4.675 9.86-13.412c.411-.558 1.193-.677 1.75-.264.554.413.672 1.2.26 1.758L35.832 94.891c-.216.294-.55.478-.912.506l-.094.003m41.342-63c-.284 0-.568-.098-.801-.299L55.33 14.783c-.516-.445-.576-1.229-.133-1.75.442-.52 1.22-.58 1.736-.135l20.038 17.318c.515.446.576 1.23.132 1.751-.243.286-.589.433-.935.433m2.582 2.7c.746 0 1.35-.604 1.35-1.35 0-.746-.604-1.35-1.35-1.35-.746 0-1.35.604-1.35 1.35 0 .746.604 1.35 1.35 1.35z"/>
    </g>
</svg>
