<svg xmlns="http://www.w3.org/2000/svg" width="132" height="117" viewBox="0 0 132 117">
    <g fill="none">
        <path fill="#D5514F" d="M28.708 38.467l2.282-.783c-.139.139-.76.346-1.337.53-.576.184-1.06.322-.83.3 1.43-.37 1.222-.23.945-.116-.3.138-.69.23-.091.184-.185.023-.346.115-1.06.162.621-.047.667-.023.599 0-.07.023-.23.045-.115.069.298.023.345 0 .713-.023 0 0 .07.045.116.092.045.046.092.115.092.115-.415.046-1.014-.023-1.083-.093-.092.047-.23.093-.414.162-.047.023-.07.023-.116.045-.046.024-.046-.022-.184.139-.115.115-.23.207-.37.322-.068.046-.114.115-.184.162-.252.276-.53.575-.783.874-4.492 4.95-9.446 10.866-13.455 16.023L0 73.92l20.529 7.918c1.89.737 3.756 1.197 5.507 1.473.438.07.852.115 1.267.162l.621.069c.208.023.393.023.6.046.392.023.783.045 1.152.045h1.083c.37 0 .692-.022 1.014-.022.323-.023.668-.023.967-.046.3-.023.6-.047.9-.093.137-.022.299-.022.437-.045s.276-.023.415-.047c.207-.023.437-.069.645-.091l-.115.022c.022-.022.046-.07.069-.138.068-.345.045-.391.023-.483-.023-.093-.045-.23-.07-.737.093-.299.185-.276.23-.253.047.023.07.069.185-.254-.115.783-.092.875-.07.968.024.092.07.183-.368 1.058 0 0 .116-.253.254-.483.138-.253.253-.507.253-.507s-.069.139-.138.3c-.069.161-.161.299-.161.299.184-.276.369-.46.46-.552.093-.093.14-.138.14-.115-.024.022-.14.23-.14.322.14-.093.67-.53 1.153-.898.484-.37.921-.644.668-.345 0 0 .045-.047.115-.115.116-.115.253-.207.323-.276.253-.207.576-.461.83-.621-.622.506-.324.321.022.114.346-.207.715-.391.023.115.162-.07.3-.092.646-.276.345-.185.945-.507 1.958-1.243-.484.368-.738.599-1.037.828-.3.23-.645.46-1.267.806.046.023-.207.253.437-.046l.507-.437c.207-.047.277.023.23.138-.022.115-.16.3-.276.414-.23.23-.253.23.738-.184l1.129-.62c-.115.16-.23.344-2.558 1.403 0 0-.115.045-.253.069l-.277.092c-.115.115-.161.184-.092.207.07.023.276 0 .645-.046l.161-.115c.392-.093.646-.07.738.138.092.184.045.553-.07 1.013-.115.46-.276 1.059-.391 1.657-.07.3-.092.599-.115.875 0 .07 0 .139-.023.207 0 .07-.023.162-.023.23 0 .139 0 .277.023.392 0 0 .253-.046.53-.092.138-.023.276-.07.392-.093.115-.022.16-.022.16-.022 0-.023-.023.346-.069.69-.045.37-.115.76-.115.76.046-.069-.391-.553-.83-.967-.437-.437-.874-.783-.737-.783-.069.115-.162.276-.276.461-.322.53-.691 1.128-1.106 1.796-.23.391-.483.782-.738 1.197-.252.437-.506.874-.76 1.335-.253.46-.53.943-.806 1.45s-.53 1.036-.83 1.566c-.276.53-.552 1.082-.852 1.657l-.185.346-.091.183c-.07.162-.162.346-.23.507l-.116.276-.092.23c-.138.3-.254.668-.392 1.013-.069.184-.138.392-.184.576l-.093.299-.091.322-.093.322-.045.162-.047.184c-.046.254-.115.483-.162.737l-.138.828-.022.207-.023.23-.046.484-.024.484v.552c0 .369 0 .714.046 1.174.024.207.047.414.07.644.023.207.045.414.092.668.092.484.184.944.322 1.428.162.506.323 1.012.53 1.519.208.507.484 1.036.761 1.542.276.507.621.99.968 1.45.345.484.737.898 1.128 1.29l.3.299.162.138.068.069.414.369.093.068.207.185c.162.138.324.253.484.369.162.114.346.23.508.344l.23.161.184.116c.945.576 1.866.966 2.719 1.266.852.276 1.59.437 2.258.576.645.114 1.221.16 1.704.184.462.022.9.045 1.222.022.323 0 .622 0 .783-.022.646-.024 1.29-.07 1.959-.092 1.313-.07 2.65-.115 3.963-.207 1.314-.093 2.627-.185 3.916-.254.646-.046 1.291-.092 1.913-.139l1.867-.137c2.488-.185 4.792-.392 6.888-.553 2.097-.161 3.94-.322 5.484-.414 1.52-.093 2.695-.162 3.456-.162 2.466.23.553 1.197.53 1.336 2.926-.553 1.198-.944 3.686-1.082.692.092-.091.62-.46.76 1.082-.185 2.097 0 2.166-.37-1.383-.16-.876-1.173-1.521-1.772 0 0 .806-.045 1.59-.091.392-.024.806-.046 1.106-.07.299-.022.484-.022.484-.022l-.093.62c.691-.022 1.66-1.795 4.792-1.702 5.231-.093 10.783-.507 15.853-.323-.047.184-.323.323-.738.437-.207.07-.438.116-.691.162-.253.045-.53.115-.783.184.69 0 1.704-.07 2.327.207-1.199-.667 2.12-.392 1.175-.69.921-.346 1.935-.553 2.949-.599 1.013-.046 2.05 0 3.087.07.254.022.507.022.76.044.254.024.508.047.738.07.484.046.968.092 1.451.115.945.047 1.843.023 2.673-.161.115-.322.738-1.864 1.705-4.005.945-2.142 2.235-4.903 3.618-7.643.345-.691.691-1.382 1.037-2.05.184-.344.345-.667.506-1.012.162-.322.346-.644.507-.967.691-1.29 1.337-2.51 1.89-3.545 1.129-2.118 1.958-3.66 2.027-4.051 1.221.253 2.442.529 2.788.713-.23-.437-2.626-1.059-3.963-1.082l-.369.806c-1.497-.115-1.636-.276-1.774-.46-.138-.185-.253-.392-1.705-.553-.023-.37.623-.484 1.59-.484.483 0 1.037.046 1.613.116.576.069 1.198.16 1.797.252-1.06-.23-2.097-.598-2.972-.783-.899-.16-1.636-.207-2.12.116-1.935-.552.346-.828-2.028-1.45-.437 0-.898.023-1.404.046-.485.046-.991.092-1.522.115-1.036.046-2.073.023-3.042-.276l.047-.116c-.3-.068-.576-.137-.852-.183l-.415-.07c-.139-.023-.276-.023-.391-.045-.531-.046-1.015-.07-1.498-.07-.968 0-1.844.092-2.719.185l-1.314.138c-.437.045-.875.091-1.313.115-.898.046-1.843 0-2.88-.185l.46-.23c-1.52-.46-4.377.162-7.05-.23.76.138 1.43.621-.16.736-1.498-.16-2.766-.115-3.918-.091-.576.023-1.128.023-1.682 0-.53 0-1.082-.046-1.613-.162l-2.027.806c-1.29.046-3.018.185-5.092.346-.53.046-1.06.092-1.612.137-.554.046-1.13.116-1.728.162-1.176.115-2.443.23-3.734.368-5.184.53-11.174 1.198-16.98 1.75l-2.189.207c-.369.023-.714.07-1.083.092-.346.023-.714.046-1.06.092-1.429.115-2.835.23-4.194.323-1.359.092-2.695.16-3.985.252-.162 0-.3.023-.46.023h-.024v.6l.023.92.023 1.818v2.234c0 .53 0 1.058-.023 1.588 0 .391-.023.783-.023 1.174 0 .299-.023.599-.046.897 0 .23-.023.461-.046.692l-.023.298-.024.277c-.068.713-.183 1.197-.276 1.542-.092.346-.184.599-.276.76-.024.07-.092.115-.046.184v.046c0 .023 0 0-.023 0l-.023-.023-.047-.023-.022-.023h-.024c.277-.07.07-.022.139-.022-.162.16-.139.068.161 0 .3-.093.852-.139 1.543-.07.692.07 1.544.253 2.42.507.23.068.438.138.668.207.207.068.438.161.668.23.207.092.438.161.645.252.208.093.438.185.599.3.093.07.184.115.277.185l.138.091.07.046c.023.024.045 0 .069.024.207.023.413.046.621.046h.046c1.843.99-4.054-2.21 4.125 2.232v-.022l.023-.046.046-.07.069-.161c.207-.414.415-.828.623-1.22.091-.207.183-.391.298-.576.093-.183.207-.368.3-.551.415-.714.76-1.382 1.107-1.98.345-.576.667-1.106.944-1.543l-.07.322c.093-.16.208-.344.3-.506l.069-.138.184-.277c.116-.183.254-.368.37-.552.506-.736 1.036-1.496 1.565-2.255.278-.392.554-.784.808-1.175.137-.207.3-.392.46-.599l.484-.62c.669-.83 1.336-1.682 2.028-2.533.184-.207.345-.438.53-.644l.253-.323c.092-.115.184-.207.3-.322.392-.437.782-.875 1.198-1.312l2.442-2.717c.184-.23.438-.46.668-.69.23-.23.461-.461.692-.714.46-.461.945-.944 1.404-1.428.969-.966 1.867-1.91 2.996-2.923 1.083-1.013 2.166-2.026 3.272-3.04.276-.252.576-.505.806-.759l.761-.76c.507-.506 1.013-1.034 1.521-1.542.506-.53 1.013-1.035 1.52-1.565l.392-.392.184-.206.046-.046.023-.046.045-.093c.139-.23.255-.46.393-.667.53-.898 1.06-1.819 1.59-2.74.322-.483.37-.828.53-1.22.138-.369.253-.76.392-1.128.137-.391.253-.76.391-1.152.023-.09.07-.207.092-.275l.046-.23.093-.46.345-1.865c.023-.093.023-.139.023-.207l.023-.185.023-.391.069-.76c.023-.253.047-.529.07-.76l.023-.644.022-.644V59.3c-.022-.69-.022-1.427-.045-1.98-.023-.299 0-.599-.023-.875-.024-.299-.07-.69-.346-1.358-.254-.69-.76-1.566-1.221-2.163-.461-.599-.9-1.036-1.29-1.382-.392-.346-.739-.576-1.13-.828-.184-.116-.368-.231-.553-.369l-.276-.184-.3-.162c-.414-.23-.806-.46-1.221-.666-.461-.208-.898-.415-1.336-.622-.207-.092-.46-.185-.691-.277-.254-.092-.484-.184-.715-.253-.23-.092-.484-.162-.714-.253-.253-.07-.53-.138-.783-.207l-.76-.207c-.138-.024-.254-.07-.37-.093l-.183-.045c-.07-.024-.139-.024-.207-.047-.576-.092-1.107-.183-1.636-.276-.116-.069-.208-.161-.346-.23-.023-.023-.07-.046-.093-.046l-.115-.046c-.07-.023-.161-.07-.23-.092-.323-.115-.646-.23-1.014-.322l-.553-.139c-.184-.045-.37-.092-.599-.115-.46-.045-.921-.092-1.382-.115l-.715-.045-.369-.024h-.39c-.554.045-1.084.069-1.614.115-.53.023-1.06.069-1.566.092-.531.046-1.038.092-1.521.115 1.98.046.714.714-.968.875-6.083.736-6.452.99-6.797 1.197-.184.115-.37.23-1.313.483-.945.23-2.627.599-5.852 1.267-2.835.644-7.166 1.588-12.465 2.923-1.337.346-2.742.691-4.17 1.06l-1.107.276-.553.137c-.184.046-.368.093-.553.115-.184.046-.369.093-.553.116l-.138.023-.277.045h-.091c-.093 0-.185.023-.254.023-.07 0-.138.024-.185.024h-.207v.115c0 .207-.023.438-.046.621-.138 1.474-.391 2.256-.46 2.463l6.566 16.137c3.756-4.833 8.04-9.92 11.89-14.133.53-.599 1.058-1.175 1.589-1.727.782-.852 1.543-1.68 2.303-2.486.37-.414.739-.806 1.108-1.197.183-.185.368-.392.529-.576l.276-.276c.093-.092.184-.207.3-.3.783-.805 1.543-1.588 2.28-2.325 2.858-2.992 5.438-5.386 7.12-6.997 1.037-1.428 2.42-2.924 3.87-4.42.738-.76 1.476-1.52 2.26-2.28.184-.183.39-.391.598-.576l.623-.575 1.267-1.174 2.557-2.349c.414-.39.852-.782 1.244-1.15.322-.369.621-.713.945-1.082 1.244-1.427 2.35-2.808 3.225-4.028l-.023.414c.138-.162.3-.369.461-.576.092-.184.185-.39.277-.599.207-.437.484-.943.783-1.541.3-.576.645-1.22 1.036-1.934.047-.092.093-.184.139-.253.023-.07.046-.139.092-.207.047-.139.115-.3.162-.461.115-.3.23-.621.345-.944.116-.322.253-.667.37-.99.068-.161.137-.345.206-.506.023-.093.069-.184.092-.254.024-.091.07-.183.092-.253.162-.576.346-1.174.531-1.795.092-.3.184-.621.275-.944.024-.092.047-.138.07-.207l.046-.207c.023-.139.069-.254.092-.392.138-.529.277-1.059.392-1.588.115-.461.23-.898.322-1.36.047-.229.093-.436.162-.665.045-.208.092-.415.115-.669.023-.253.023-.506 0-.828-.023-.323-.093-.691-.23-1.129-.139-.437-.346-.92-.576-1.358-.23-.46-.531-.851-.783-1.197-.531-.667-1.014-1.081-1.43-1.427-.206-.161-.39-.322-.599-.437-.207-.116-.414-.253-.598-.37-.76-.458-1.406-.804-1.867-1.012l.3.37c-.23-.07-.414-.163-.6-.231-.207-.07-.391-.115-.576-.185-.345-.115-.62-.23-.852-.345-.46-.23-.691-.437-.876-.69-.091-.116-.16-.254-.252-.392-.093-.138-.23-.253-.37-.39-.3-.277-.69-.577-1.359-.899-.23.3-.645.483-1.198.621-.277.07-.576.116-.875.139-.162.023-.323.023-.484.045l-.553.07c-1.52.16-3.134.184-3.964.137L69.03.76h-.598c-.093 0-.162.023-.254.023-.346.045-.738.092-1.129.138-.806.091-1.751.23-2.742.345-.414.07-.852.161-1.314.253-.437.092-.897.185-1.36.277-.897.184-1.842.368-2.764.552-1.82.322-3.709.783-5.322 1.082l.714-.76c-2.349.645-5.621 1.428-8.662 2.05-3.134.783-6.014 1.358-7.742 1.933-1.89.483-4.032.898-6.429 1.588-1.198.322-2.442.645-3.732.99-1.29.37-2.627.806-3.986 1.22-1.36.438-2.742.875-4.125 1.359-.346.115-.691.253-1.037.368l-.99.369c-.415.16-.853.321-1.267.482-1.683.668-3.318 1.404-4.84 2.233l-4.768.047-.53.414s.092 1.382.392 3.476c.299 2.095.806 4.88 1.635 7.69 1.659 5.639 4.563 11.348 9.447 11.762l.115.621 1.544-.712c2.005-.484 2.626-1.497 2.718-.875 0 0-.644.23-1.313.483-.668.253-1.313.483-1.313.483 1.982-.598.76.23.162.853.805-.277 1.612-.507 2.326-.6.277-.368-.368-.137-.714-.137.945-.621 2.143-1.704 3.503-1.934.99-.345 1.105-.115 1.267.069.068.092.161.207.391.23.116.024.253 0 .414-.023.093-.023.185-.045.3-.069h.047c.62-.046 1.083.045 1.359.162.3.115.414.276.576.322.093.022.207.022.438-.046-.484.39-.484.39-.714.552.322-.207.506-.3.667-.369.185-.068.37-.16.83-.368-.668.438-1.682 1.06-2.373 1.474.345-.207.622-.37.852-.438.207-.07.277-.092.3-.07.023 0-.185.163-.3.208z" opacity=".089"/>
        <path fill="#EABC63" d="M58.05 76.959c.018 0 .027-.009 0-.018-.027.009-.018.018 0 .018"/>
        <path fill="#E67876" d="M66.222 31.348c-3.83-.779-6.61-2.385-8.174-3.448-1.557 1.062-4.337 2.67-8.167 3.448-3.868.791-7.087.377-8.946 0-5.666 11.79-5.209 24.642.39 33.07l.03.05c.284.42.896 1.323 1.829 2.471h15.89c4.077 0 8.05.804 11.75 2.361.661-.68 1.243-1.335 1.748-1.934 1.169-1.397 1.916-2.502 2.206-2.948 5.598-8.428 6.048-21.28.39-33.07-1.86.377-5.079.791-8.946 0"/>
        <path fill="#1C3749" d="M54.369 59.948c.234.226.55.352.878.352.031 0 .063 0 .093-.004.36-.026.691-.202.906-.484l11.91-15.595c.409-.533.292-1.287-.26-1.681-.553-.396-1.33-.282-1.737.252L55.107 57.262l-5.288-5.115c-.484-.47-1.27-.47-1.755 0-.486.469-.486 1.23 0 1.7l6.306 6.101"/>
        <path fill="#1C3749" d="M37.937 30.377l1.143-2.396 2.599.534c2.453.502 5.044.502 7.497 0 2.434-.497 4.8-1.502 6.848-2.898l1.913-1.305 1.915 1.305c2.048 1.396 4.42 2.4 6.848 2.898 2.451.502 5.05.502 7.502 0l2.592-.534 1.144 2.396c5.956 12.414 5.712 26.604-.617 36.15-.447.674-1.09 1.587-1.926 2.628-1.003-.588-2.03-1.121-3.082-1.593-4.176-1.894-8.707-2.874-13.36-2.874h-20.13c-.452 0-.904.013-1.35.044-5.248-9.473-5.124-22.695.464-34.355zm-20.513 61.27c.672 0 1.223-.55 1.223-1.225V87.36c0-10.251 7.643-18.737 17.518-20.042.868-.117 1.761-.178 2.66-.178h20.129c4.035 0 7.966.797 11.63 2.34 1.088.455 2.151.981 3.19 1.57.723.404 1.425.838 2.11 1.316.099.062.197.123.288.19l17.995 12.157c2.745 1.85 3.95 5.348 2.929 8.505l-.93 2.885c-.085.27-.33.447-.611.447H92.02c-.672 0-1.222.546-1.222 1.225 0 .675.55 1.226 1.222 1.226h3.535c1.345 0 2.525-.858 2.935-2.138l.936-2.886c1.35-4.191-.251-8.835-3.89-11.298L77.554 70.533c-.03-.018-.055-.037-.085-.055.813-1.023 1.448-1.918 1.895-2.598 6.793-10.251 7.1-25.385.783-38.564l-1.56-3.253c-.238-.51-.788-.785-1.344-.675l-3.528.724c-2.135.434-4.391.434-6.525 0-2.115-.435-4.176-1.305-5.956-2.518L58.63 21.81c-.416-.282-.96-.282-1.376 0l-2.605 1.782c-1.78 1.214-3.84 2.084-5.962 2.519-2.127.434-4.383.434-6.517 0l-3.528-.723c-.557-.11-1.107.165-1.352.674l-1.553 3.247c-5.754 12.015-6.01 25.648-.868 35.727C24.27 66.919 16.2 76.214 16.2 87.359v3.063c0 .674.55 1.226 1.223 1.226h.001zM37.23 100.8h34.44c.68 0 1.23-.403 1.23-.9s-.55-.9-1.23-.9H37.23c-.68 0-1.23.403-1.23.9s.55.9 1.23.9"/>
        <path fill="#1C3749" d="M27 103.57c-3.091 0-5.607-2.656-5.607-5.92s2.515-5.92 5.607-5.92c3.091 0 5.607 2.656 5.607 5.92s-2.515 5.92-5.607 5.92zm8.1-5.92c0-4.714-3.634-8.55-8.1-8.55-4.467 0-8.1 3.836-8.1 8.55s3.633 8.55 8.1 8.55c4.466 0 8.1-3.836 8.1-8.55zm46.8 5.92c-3.092 0-5.607-2.656-5.607-5.92s2.515-5.92 5.607-5.92c3.091 0 5.607 2.656 5.607 5.92s-2.516 5.92-5.607 5.92zm8.1-5.92c0-4.714-3.634-8.55-8.1-8.55-4.467 0-8.1 3.836-8.1 8.55s3.633 8.55 8.1 8.55c4.466 0 8.1-3.836 8.1-8.55zm-9-16.985c0-.682-.553-1.236-1.236-1.236h-26.4c-6.928 0-13.719-1.26-20.185-3.745-.637-.247-1.351.072-1.596.709-.245.636.072 1.35.709 1.596 6.75 2.595 13.84 3.911 21.072 3.911h26.4c.683 0 1.236-.553 1.236-1.235M56.201 77.4c.142 0 .285-.018.426-.055.736-.193 1.141-.84.906-1.444l-2.605-6.702c-.235-.605-1.02-.937-1.756-.744-.735.193-1.14.84-.905 1.444l2.604 6.7c.19.49.74.801 1.33.801m34.364 6.585c0-.654-.559-1.185-1.248-1.185h-3.449c-.85-.017-1.626.426-1.979 1.16-.353.735-.204 1.59.378 2.178 2.073 2.097 4.874 3.405 7.887 3.682l1.876.174c.042.004.082.006.123.006.635 0 1.179-.459 1.242-1.071.066-.652-.436-1.231-1.123-1.294l-1.877-.174c-2.08-.192-4.032-.996-5.593-2.29h2.515c.69 0 1.248-.53 1.248-1.186"/>
        <path fill="#1C3749" d="M23.952 83.71c1.725-6.55 7.668-11.124 14.453-11.124.66 0 1.195-.534 1.195-1.193 0-.658-.535-1.193-1.195-1.193-7.87 0-14.764 5.306-16.765 12.902-.169.638.213 1.29.852 1.458.1.027.204.04.304.04.53 0 1.014-.355 1.156-.89m33.083-.91c-.682 0-1.235.549-1.235 1.228v7.428c0 2.671 2.186 4.844 4.873 4.844h3.792c.681 0 1.235-.549 1.235-1.228 0-.676-.553-1.226-1.235-1.226h-3.792c-1.325 0-2.403-1.072-2.403-2.39v-7.428c0-.678-.554-1.228-1.235-1.228m-27.438 5.112c2.942 1.124 5.207 3.495 6.216 6.505.556 1.665 2.123 2.783 3.896 2.783h4.058c.68 0 1.233-.558 1.233-1.246s-.553-1.246-1.233-1.246h-4.059c-.715 0-1.341-.438-1.559-1.09-1.247-3.719-4.045-6.65-7.679-8.038-.639-.242-1.35.081-1.59.725-.24.645.08 1.364.717 1.607"/>
        <path fill="#1C3749" d="M61.65 86.4c.745 0 1.35-.403 1.35-.9s-.605-.9-1.35-.9h-2.7c-.746 0-1.35.403-1.35.9s.604.9 1.35.9h2.7m-20.7 0c.745 0 1.35-.403 1.35-.9s-.605-.9-1.35-.9h-2.7c-.746 0-1.35.403-1.35.9s.604.9 1.35.9h2.7m64.02 19.8H6.63c-.681 0-1.23.403-1.23.9s.55.9 1.23.9h98.34c.68 0 1.23-.403 1.23-.9s-.55-.9-1.23-.9"/>
    </g>
</svg>
