<svg xmlns="http://www.w3.org/2000/svg" xmlns:xlink="http://www.w3.org/1999/xlink" width="1080" zoomAndPan="magnify" viewBox="0 0 810 809.999993" height="1080" preserveAspectRatio="xMidYMid meet" version="1.0"><defs><g/><clipPath id="aee1226464"><path d="M 125.507812 374 L 345 374 L 345 527.609375 L 125.507812 527.609375 Z M 125.507812 374 " clip-rule="nonzero"/></clipPath><clipPath id="0c32bbfcc2"><path d="M 195 432 L 348 432 L 348 527.609375 L 195 527.609375 Z M 195 432 " clip-rule="nonzero"/></clipPath></defs><g clip-path="url(#aee1226464)"><path fill="#ffffff" d="M 253.199219 405.691406 C 273.582031 405.335938 293.957031 405.539062 314.34375 405.539062 L 344.089844 405.539062 C 333.089844 387.078125 310.261719 374.601562 286.894531 374.347656 C 241.867188 373.859375 196.847656 374.039062 151.820312 374.191406 C 148.457031 374.21875 143.660156 375.46875 141.972656 377.859375 C 136.496094 385.65625 132.136719 394.238281 125.679688 405.386719 L 208.128906 405.386719 C 183.996094 447.273438 161.320312 486.621094 137.722656 527.585938 L 174.546875 527.585938 L 243.453125 408.054688 C 245.863281 406.464844 250.132812 405.757812 253.199219 405.691406 Z M 253.199219 405.691406 " fill-opacity="1" fill-rule="nonzero"/></g><g clip-path="url(#0c32bbfcc2)"><path fill="#ffffff" d="M 347.25 441.933594 C 346.457031 434.605469 343.21875 432.894531 336.609375 432.945312 C 309.011719 433.175781 281.386719 432.921875 253.785156 433.203125 C 251.996094 433.226562 249.808594 433.585938 247.917969 434.246094 C 246.179688 434.859375 244.679688 435.726562 243.886719 436.867188 C 238.503906 444.734375 234.269531 453.390625 228.171875 464.34375 L 311.558594 464.34375 C 305.789062 483.851562 290.109375 495.917969 268.855469 496.324219 C 250.207031 496.707031 231.5625 496.53125 212.914062 496.273438 L 195.289062 527.542969 C 221.28125 527.621094 247.277344 527.59375 273.265625 527.1875 C 316.566406 526.480469 351.867188 484.792969 347.25 441.933594 Z M 347.25 441.933594 " fill-opacity="1" fill-rule="nonzero"/></g><g fill="#ffffff" fill-opacity="1"><g transform="translate(376.566928, 526.649701)"><g><path d="M 39.125 -16.226562 C 37.171875 -15.710938 34.914062 -15.402344 32.859375 -15.402344 C 28.238281 -15.402344 24.441406 -17.867188 25.363281 -24.441406 L 27.625 -40.253906 C 28.546875 -46.828125 34.605469 -48.675781 39.226562 -48.675781 C 43.128906 -48.675781 47.546875 -47.339844 51.34375 -46.722656 C 51.859375 -46.722656 52.578125 -46.929688 52.988281 -47.648438 C 56.171875 -57.402344 57.09375 -60.691406 57.09375 -60.894531 C 57.199219 -61.410156 56.789062 -61.921875 56.273438 -62.230469 C 51.753906 -64.695312 44.257812 -65.515625 38.304688 -65.515625 C 13.453125 -65.515625 10.269531 -43.847656 10.269531 -43.847656 L 6.984375 -20.847656 C 6.46875 -17.148438 5.957031 0.820312 30.808594 0.820312 C 36.761719 0.820312 44.464844 -0.617188 49.90625 -2.976562 C 50.730469 -3.390625 51.960938 -4.3125 52.167969 -5.546875 L 56.683594 -37.585938 C 56.890625 -38.816406 55.964844 -39.535156 55.042969 -39.535156 L 37.789062 -39.535156 C 36.558594 -39.535156 35.734375 -38.507812 35.632812 -37.585938 L 34.296875 -28.035156 C 34.195312 -27.210938 34.605469 -26.1875 35.839844 -26.1875 L 40.460938 -26.1875 Z M 39.125 -16.226562 "/></g></g></g><g fill="#ffffff" fill-opacity="1"><g transform="translate(426.160166, 526.649701)"><g><path d="M 29.984375 0.820312 C 54.835938 0.820312 58.121094 -20.847656 58.121094 -20.847656 L 64.078125 -62.847656 C 64.179688 -64.078125 63.257812 -64.695312 62.332031 -64.695312 L 48.46875 -64.695312 C 47.648438 -64.695312 46.519531 -64.078125 46.414062 -62.847656 L 40.769531 -23.105469 C 39.84375 -16.53125 34.402344 -16.019531 32.347656 -16.019531 C 30.292969 -16.019531 25.054688 -16.53125 25.980469 -23.105469 L 31.628906 -62.847656 C 31.730469 -64.078125 30.808594 -64.695312 29.984375 -64.695312 L 16.121094 -64.695312 C 15.199219 -64.695312 14.070312 -64.078125 13.964844 -62.847656 L 8.011719 -20.847656 C 8.011719 -20.847656 5.132812 0.820312 29.984375 0.820312 Z M 29.984375 0.820312 "/></g></g></g><g fill="#ffffff" fill-opacity="1"><g transform="translate(479.552545, 526.649701)"><g><path d="M 41.691406 -1.847656 C 41.792969 -0.71875 42.511719 0 43.335938 0 L 57.199219 0 C 58.019531 0 59.046875 -0.617188 59.253906 -1.847656 L 49.496094 -62.742188 C 49.394531 -63.875 48.878906 -64.695312 47.957031 -64.695312 L 30.910156 -64.695312 C 29.984375 -64.695312 29.265625 -63.875 28.753906 -62.742188 L 1.746094 -1.847656 C 1.539062 -0.617188 2.566406 0 3.390625 0 L 17.25 0 C 18.074219 0 18.792969 -0.71875 19.304688 -1.847656 L 22.179688 -8.421875 L 40.664062 -8.421875 Z M 35.941406 -39.945312 L 38.199219 -24.542969 L 29.164062 -24.542969 Z M 35.941406 -39.945312 "/></g></g></g><g fill="#ffffff" fill-opacity="1"><g transform="translate(533.150294, 526.649701)"><g><path d="M 35.222656 -1.847656 C 35.53125 -0.71875 36.148438 0 36.96875 0 L 50.730469 0 C 51.652344 0 52.679688 -0.617188 52.886719 -1.847656 L 46.828125 -19.203125 C 55.246094 -25.570312 56.789062 -35.324219 56.789062 -35.324219 L 57.816406 -43.027344 C 57.816406 -43.027344 60.691406 -64.695312 35.839844 -64.695312 L 16.121094 -64.695312 C 15.199219 -64.695312 14.070312 -63.976562 13.863281 -62.742188 L 5.339844 -1.847656 C 5.132812 -0.617188 6.160156 0 7.085938 0 L 20.949219 0 C 21.769531 0 22.796875 -0.617188 23.003906 -1.847656 L 24.644531 -13.65625 L 28.652344 -13.65625 C 29.472656 -13.65625 30.292969 -13.65625 31.011719 -13.761719 Z M 33.476562 -47.855469 C 35.53125 -47.855469 40.5625 -47.339844 39.636719 -40.769531 L 39.226562 -37.585938 C 38.304688 -31.011719 33.066406 -30.5 31.011719 -30.5 L 27.007812 -30.5 L 29.472656 -47.855469 Z M 33.476562 -47.855469 "/></g></g></g><g fill="#ffffff" fill-opacity="1"><g transform="translate(580.895294, 526.649701)"><g><path d="M 16.121094 -64.695312 C 15.199219 -64.695312 14.070312 -63.976562 13.863281 -62.742188 L 5.339844 -1.847656 C 5.132812 -0.617188 6.160156 0 7.085938 0 L 26.1875 0 C 51.035156 0 54.21875 -21.667969 54.21875 -21.667969 L 57.199219 -43.027344 C 57.199219 -43.027344 60.074219 -64.695312 35.222656 -64.695312 Z M 32.859375 -47.855469 C 34.914062 -47.855469 39.945312 -47.339844 39.023438 -40.769531 L 36.660156 -23.925781 C 35.734375 -17.355469 30.601562 -16.839844 28.546875 -16.839844 L 25.160156 -16.839844 L 29.472656 -47.855469 Z M 32.859375 -47.855469 "/></g></g></g><g fill="#2c6bd6" fill-opacity="1"><g transform="translate(629.246603, 526.649701)"><g/></g></g><g fill="#f87c2c" fill-opacity="1"><g transform="translate(375.186899, 442.649705)"><g><path d="M 24.226562 -49.375 L 17.582031 -1.839844 C 17.378906 -0.613281 18.402344 0 19.320312 0 L 33.121094 0 C 33.9375 0 34.960938 -0.613281 35.164062 -1.839844 L 41.808594 -49.375 L 55.304688 -49.375 C 56.53125 -49.375 57.347656 -50.398438 57.449219 -51.214844 L 58.984375 -62.460938 C 59.1875 -63.378906 58.675781 -64.402344 57.449219 -64.402344 L 12.878906 -64.402344 C 11.652344 -64.402344 10.9375 -63.378906 10.734375 -62.460938 L 9.199219 -51.214844 C 9.097656 -50.398438 9.507812 -49.375 10.734375 -49.375 Z M 24.226562 -49.375 "/></g></g></g><g fill="#f87c2c" fill-opacity="1"><g transform="translate(424.764865, 442.649705)"><g><path d="M 35.0625 -1.839844 C 35.371094 -0.714844 35.984375 0 36.800781 0 L 50.5 0 C 51.417969 0 52.441406 -0.613281 52.644531 -1.839844 L 46.613281 -19.117188 C 54.996094 -25.453125 56.53125 -35.164062 56.53125 -35.164062 L 57.550781 -42.832031 C 57.550781 -42.832031 60.414062 -64.402344 35.675781 -64.402344 L 16.050781 -64.402344 C 15.128906 -64.402344 14.003906 -63.6875 13.800781 -62.460938 L 5.316406 -1.839844 C 5.109375 -0.613281 6.132812 0 7.054688 0 L 20.855469 0 C 21.671875 0 22.695312 -0.613281 22.898438 -1.839844 L 24.535156 -13.597656 L 28.519531 -13.597656 C 29.339844 -13.597656 30.15625 -13.597656 30.871094 -13.699219 Z M 33.324219 -47.636719 C 35.371094 -47.636719 40.378906 -47.125 39.457031 -40.582031 L 39.050781 -37.414062 C 38.128906 -30.871094 32.917969 -30.359375 30.871094 -30.359375 L 26.886719 -30.359375 L 29.339844 -47.636719 Z M 33.324219 -47.636719 "/></g></g></g><g fill="#f87c2c" fill-opacity="1"><g transform="translate(476.489514, 442.649705)"><g><path d="M 29.851562 0.816406 C 54.589844 0.816406 57.859375 -20.75 57.859375 -20.75 L 63.789062 -62.5625 C 63.890625 -63.789062 62.96875 -64.402344 62.050781 -64.402344 L 48.25 -64.402344 C 47.433594 -64.402344 46.308594 -63.789062 46.207031 -62.5625 L 40.582031 -23 C 39.664062 -16.457031 34.246094 -15.945312 32.199219 -15.945312 C 30.15625 -15.945312 24.941406 -16.457031 25.863281 -23 L 31.484375 -62.5625 C 31.585938 -63.789062 30.667969 -64.402344 29.851562 -64.402344 L 16.050781 -64.402344 C 15.128906 -64.402344 14.003906 -63.789062 13.902344 -62.5625 L 7.972656 -20.75 C 7.972656 -20.75 5.109375 0.816406 29.851562 0.816406 Z M 29.851562 0.816406 "/></g></g></g><g fill="#f87c2c" fill-opacity="1"><g transform="translate(533.836404, 442.649705)"><g><path d="M 15.027344 -20.242188 C 14.824219 -20.445312 14.515625 -20.546875 14.210938 -20.546875 C 13.492188 -20.546875 12.777344 -20.136719 12.371094 -19.628906 L 5.214844 -9.507812 C 4.90625 -9.199219 4.804688 -8.894531 4.703125 -8.484375 C 4.601562 -7.972656 4.90625 -7.460938 5.417969 -6.953125 C 13.1875 0.921875 27.191406 0.816406 27.191406 0.816406 C 50.292969 0.203125 54.28125 -15.230469 54.894531 -19.117188 C 58.371094 -43.648438 26.886719 -38.230469 28.007812 -46.101562 C 28.316406 -48.558594 31.078125 -49.375 35.0625 -49.375 C 39.96875 -49.375 44.160156 -48.660156 47.023438 -47.636719 C 47.433594 -47.535156 47.945312 -47.332031 48.25 -47.332031 C 48.964844 -47.332031 49.273438 -47.738281 49.679688 -48.25 L 55.40625 -58.167969 C 55.609375 -58.472656 55.917969 -58.984375 55.917969 -59.394531 C 56.019531 -59.902344 55.917969 -60.414062 55.203125 -60.722656 C 48.761719 -64.300781 44.367188 -65.21875 36.390625 -65.21875 C 23.511719 -65.21875 12.265625 -59.289062 10.324219 -45.285156 C 7.054688 -22.488281 38.4375 -27.089844 37.210938 -18.605469 C 37.003906 -17.171875 36.085938 -15.027344 29.953125 -15.027344 C 25.046875 -15.027344 19.320312 -16.457031 15.027344 -20.242188 Z M 15.027344 -20.242188 "/></g></g></g><g fill="#f87c2c" fill-opacity="1"><g transform="translate(586.378813, 442.649705)"><g><path d="M 24.226562 -49.375 L 17.582031 -1.839844 C 17.378906 -0.613281 18.402344 0 19.320312 0 L 33.121094 0 C 33.9375 0 34.960938 -0.613281 35.164062 -1.839844 L 41.808594 -49.375 L 55.304688 -49.375 C 56.53125 -49.375 57.347656 -50.398438 57.449219 -51.214844 L 58.984375 -62.460938 C 59.1875 -63.378906 58.675781 -64.402344 57.449219 -64.402344 L 12.878906 -64.402344 C 11.652344 -64.402344 10.9375 -63.378906 10.734375 -62.460938 L 9.199219 -51.214844 C 9.097656 -50.398438 9.507812 -49.375 10.734375 -49.375 Z M 24.226562 -49.375 "/></g></g></g></svg>